<svg t="1633673435777" class="icon" viewBox="0 0 1024 1024" version="1.1" xmlns="http://www.w3.org/2000/svg" p-id="8589" width="32" height="32"><path d="M654 260.5L392.4 522.1c-5.9 5.9-15.4 5.9-21.2 0-5.9-5.9-5.9-15.4 0-21.2l261.6-261.6c5.9-5.9 15.4-5.9 21.2 0 5.9 5.8 5.9 15.3 0 21.2z" fill="#333333" p-id="8590"></path><path d="M631.8 784.7L370.2 523.1c-5.9-5.9-5.9-15.4 0-21.2 5.9-5.9 15.4-5.9 21.2 0L653 763.5c5.9 5.9 5.9 15.4 0 21.2-5.9 5.9-15.4 5.9-21.2 0z" fill="#333333" p-id="8591"></path></svg>