<?xml version="1.0" standalone="no"?><!DOCTYPE svg PUBLIC "-//W3C//DTD SVG 1.1//EN" "http://www.w3.org/Graphics/SVG/1.1/DTD/svg11.dtd"><svg t="1631534569012" class="icon" viewBox="0 0 1024 1024" version="1.1" xmlns="http://www.w3.org/2000/svg" p-id="3567" width="48" height="48" xmlns:xlink="http://www.w3.org/1999/xlink"><defs><style type="text/css"></style></defs><path d="M959.5 64.15v895.21H64.28V64.15H959.5m0.2-0.2H64.08v895.61H959.7V63.95z" fill="#8a8a8a" p-id="3568"></path><path d="M448.13 159.96m-32 0a32 32 0 1 0 64 0 32 32 0 1 0-64 0Z" fill="#8a8a8a" opacity=".18" p-id="3569"></path><path d="M512.1 541.27c0-0.02-0.07-0.1-0.09-0.11 22.47-0.31 43.6-9.4 59.39-25.56 15.82-16.18 24.54-37.67 24.54-60.5s-8.71-44.32-24.54-60.5c-15.78-16.13-36.86-25.22-59.38-25.59 0.06-0.01 0.08-0.04 0.08-0.08V225.39c59.53 0.49 116.27 28.41 159.73 78.66 42.01 48.57 66.1 112.94 66.1 176.61 0 29.76-36.26 107.88-84.34 181.72-25.28 38.83-50.9 71.83-74.08 95.45-26.93 27.44-49.61 41.46-67.41 41.66V541.27z" fill="#8a8a8a" p-id="3570"></path><path d="M512.15 225.49c30.27 0.24 59.83 7.56 87.87 21.76 13.33 6.75 26.24 15.06 38.36 24.69 11.91 9.47 23.16 20.28 33.41 32.14 10.19 11.78 19.46 24.65 27.56 38.26a277.36 277.36 0 0 1 20.8 43.07c11.76 30.93 17.72 62.97 17.72 95.25 0 14.44-8.72 41.11-24.56 75.09-15.65 33.58-36.87 71.43-59.77 106.6-25.28 38.82-50.89 71.83-74.07 95.44-12.84 13.09-24.91 23.25-35.86 30.21-11.75 7.47-22.33 11.32-31.46 11.44V541.27v-0.03c22.49-0.4 43.54-9.49 59.29-25.6 15.83-16.19 24.55-37.69 24.55-60.54s-8.72-44.35-24.55-60.54c-15.75-16.11-36.8-25.2-59.29-25.6V225.49m-0.1-0.1v143.53c0 0.07-0.12 0.06-0.13 0.13 46.56 0.71 83.97 38.8 83.97 86.04 0 47.24-37.41 85.33-83.97 86.04 0.01 0.07 0.13 0.06 0.13 0.13v258.28c76.31-0.78 225.93-258.63 225.93-318.89 0-131.61-100.99-254.32-225.93-255.26zM509.17 799.41c-31.32-2.29-83.55-54.14-139.74-138.71-49.08-73.87-86.09-151.27-86.09-180.04 0-63.67 24.09-128.05 66.1-176.61 43.46-50.25 100.2-78.16 159.78-78.61l-0.05 143.48c0 0.02 0.07 0.1 0.09 0.11-22.47 0.31-43.6 9.4-59.39 25.56-15.82 16.18-24.54 37.67-24.54 60.5s8.71 44.32 24.54 60.5c15.78 16.13 36.86 25.22 59.38 25.59-0.06 0.01-0.08 0.04-0.08 0.08v258.15z" fill="#8a8a8a" p-id="3571"></path><path d="M509.12 225.49v143.46c-22.49 0.4-43.54 9.49-59.29 25.6-15.83 16.19-24.55 37.69-24.55 60.54s8.72 44.34 24.55 60.54c15.75 16.11 36.8 25.2 59.29 25.6V799.35c-8.58-0.64-18.71-4.91-30.12-12.67-10.66-7.26-22.51-17.62-35.23-30.79-23.15-23.98-48.84-56.91-74.29-95.22-23.42-35.26-45.04-72.74-60.86-105.55-16.26-33.72-25.22-60.16-25.22-74.46 0-32.28 5.96-64.32 17.72-95.25a277.36 277.36 0 0 1 20.8-43.07c8.1-13.61 17.37-26.49 27.56-38.26 10.26-11.86 21.5-22.67 33.41-32.14 12.12-9.63 25.03-17.94 38.36-24.69 28.03-14.19 57.59-21.51 87.87-21.76m0.1-0.1c-124.95 0.93-225.93 123.64-225.93 255.27 0 60.23 154.28 313.68 225.93 318.8V541.27c0-0.07 0.12-0.06 0.13-0.13-46.56-0.71-83.97-38.81-83.97-86.04 0-47.24 37.41-85.33 83.97-86.04-0.01-0.07-0.13-0.06-0.13-0.13V225.39z" fill="#8a8a8a" p-id="3572"></path><path d="M509.35 369.06c0.44-0.01 0.85-0.13 1.29-0.13 0.44 0 0.85 0.12 1.29 0.13 0.01-0.07 0.13-0.06 0.13-0.13V225.39c-0.48 0-0.94-0.09-1.42-0.09s-0.94 0.08-1.42 0.09v143.53c0 0.08 0.12 0.07 0.13 0.14zM511.83 541.34c0.01 0 0.01 0.01 0.02 0.01v258.01c-0.18 0.02-0.36 0.07-0.53 0.11-0.23 0.06-0.45 0.11-0.67 0.11-0.2-0.01-0.43-0.08-0.68-0.15-0.18-0.06-0.36-0.11-0.54-0.14V541.36c0.01 0 0.01-0.01 0.02-0.01 0.17 0.01 0.33 0.03 0.51 0.06 0.22 0.03 0.45 0.07 0.69 0.07 0.24 0 0.47-0.03 0.69-0.07 0.16-0.03 0.32-0.06 0.49-0.07m0.09-0.2c-0.44 0.01-0.85 0.13-1.29 0.13-0.44 0-0.85-0.12-1.29-0.13-0.01 0.07-0.13 0.06-0.13 0.13v258.19c0.45 0.03 0.97 0.31 1.42 0.32h0.04c0.44 0 0.94-0.23 1.38-0.24V541.27c0-0.07-0.12-0.06-0.13-0.13z" fill="#8a8a8a" p-id="3573"></path><path d="M755.6 549.63l-3.66-4.4c19.07-16.21 27.61-42.83 24.06-74.95-3.61-32.57-19.15-66.8-43.79-96.42l4.33-3.7c25.37 30.48 41.41 65.81 45.13 99.48 3.77 34.09-5.5 62.5-26.07 79.99z" fill="#8a8a8a" p-id="3574"></path><path d="M797.37 571.29l-5.11-2.58c14.04-28.39 53.53-128.63-28.03-226.65l4.33-3.7c83.81 100.7 43.24 203.74 28.81 232.93zM258.72 549.03c-43.15-34.46-37.05-115.2 13.6-179.99l4.44 3.56c-48.68 62.3-55.2 139.41-14.54 171.91l-3.5 4.52z" fill="#8a8a8a" p-id="3575"></path><path d="M217.62 571.95c-15.32-28.72-59-130.46 21.76-233.71l4.44 3.56c-78.57 100.49-36.11 199.47-21.2 227.42l-5 2.73z" fill="#8a8a8a" p-id="3576"></path></svg>